<?xml version="1.0" encoding="UTF-8" standalone="no"?>
<!DOCTYPE svg PUBLIC "-//W3C//DTD SVG 1.1//EN" "http://www.w3.org/Graphics/SVG/1.1/DTD/svg11.dtd">
<svg xmlns="http://www.w3.org/2000/svg" xmlns:xlink="http://www.w3.org/1999/xlink" version="1.1" width="345.0926pt" height="236.1044pt" viewBox="0 0 345.0926 236.1044">
<g enable-background="new">
<g>
<text xml:space="preserve" transform="matrix(.9042599 0 -0 .9042599 -90.89863 -47.455385)" font-size="12" font-family="HelveticaNeue"><tspan y="11.42395" x="0">&#x000a;</tspan></text>
<text xml:space="preserve" transform="matrix(.9042599 0 -0 .9042599 -90.89863 -47.455385)" font-size="12" font-family="HelveticaNeue"><tspan y="25.73987" x="0">&#x000a;</tspan></text>
<text xml:space="preserve" transform="matrix(.9042599 0 -0 .9042599 -90.89863 -47.455385)" font-size="12" font-family="HelveticaNeue"><tspan y="40.05579" x="0">&#x000a;</tspan></text>
<text xml:space="preserve" transform="matrix(.9042599 0 -0 .9042599 -90.89863 -47.455385)" font-size="12" font-family="HelveticaNeue"><tspan y="54.3717" x="0">&#x000a;</tspan></text>
<text xml:space="preserve" transform="matrix(.9042599 0 -0 .9042599 -90.89863 -47.455385)" font-size="12" font-family="HelveticaNeue"><tspan y="68.68762" x="0">&#x000a;</tspan></text>
<text xml:space="preserve" transform="matrix(.9042599 0 -0 .9042599 -90.89863 -47.455385)" font-size="12" font-family="HelveticaNeue"><tspan y="83.00354" x="0">&#x000a;</tspan></text>
<text xml:space="preserve" transform="matrix(.9042599 0 -0 .9042599 -90.89863 -47.455385)" font-size="12" font-family="HelveticaNeue"><tspan y="97.31946" x="0">&#x000a;</tspan></text>
<text xml:space="preserve" transform="matrix(.9042599 0 -0 .9042599 -90.89863 -47.455385)" font-size="12" font-family="HelveticaNeue"><tspan y="111.6354" x="0">&#x000a;</tspan></text>
<text xml:space="preserve" transform="matrix(.9042599 0 -0 .9042599 -90.89863 -47.455385)" font-size="12" font-family="HelveticaNeue"><tspan y="125.9513" x="0">&#x000a;</tspan></text>
<text xml:space="preserve" transform="matrix(.9042599 0 -0 .9042599 -90.89863 -47.455385)" font-size="12" font-family="HelveticaNeue"><tspan y="140.2672" x="0">&#x000a;</tspan></text>
<text xml:space="preserve" transform="matrix(.9042599 0 -0 .9042599 -90.89863 -47.455385)" font-size="12" font-family="HelveticaNeue"><tspan y="154.5831" x="0">&#x000a;</tspan></text>
<text xml:space="preserve" transform="matrix(.9042599 0 -0 .9042599 -90.89863 -47.455385)" font-size="12" font-family="HelveticaNeue"><tspan y="168.899" x="0">&#x000a;</tspan></text>
<text xml:space="preserve" transform="matrix(.9042599 0 -0 .9042599 -90.89863 -47.455385)" font-size="12" font-family="HelveticaNeue"><tspan y="183.215" x="0">&#x000a;</tspan></text>
<text xml:space="preserve" transform="matrix(.9042599 0 -0 .9042599 -90.89863 -47.455385)" font-size="12" font-family="HelveticaNeue"><tspan y="197.5309" x="0">&#x000a;</tspan></text>
<text xml:space="preserve" transform="matrix(.9042599 0 -0 .9042599 -90.89863 -47.455385)" font-size="12" font-family="HelveticaNeue"><tspan y="211.8468" x="0">&#x000a;</tspan></text>
<text xml:space="preserve" transform="matrix(.9042599 0 -0 .9042599 -90.89863 -47.455385)" font-size="12" font-family="HelveticaNeue"><tspan y="226.1627" x="0">&#x000a;</tspan></text>
<text xml:space="preserve" transform="matrix(.9042599 0 -0 .9042599 -90.89863 -47.455385)" font-size="12" font-family="HelveticaNeue"><tspan y="240.4786" x="0">&#x000a;</tspan></text>
<text xml:space="preserve" transform="matrix(.9042599 0 -0 .9042599 -90.89863 -47.455385)" font-size="12" font-family="HelveticaNeue"><tspan y="254.7946" x="0">&#x000a;</tspan></text>
<text xml:space="preserve" transform="matrix(.9042599 0 -0 .9042599 -90.89863 -47.455385)" font-size="12" font-family="HelveticaNeue"><tspan y="269.1105" x="0">&#x000a;</tspan></text>
<text xml:space="preserve" transform="matrix(.9042599 0 -0 .9042599 -90.89863 -47.455385)" font-size="12" font-family="HelveticaNeue"><tspan y="283.4264" x="0">&#x000a;</tspan></text>
<text fill-opacity="0" xml:space="preserve" transform="matrix(.9042599 0 -0 .9042599 -90.89863 -47.455385)" font-size="12" font-family="Helvetica"><tspan y="189.1297" x="294.2727">n</tspan></text>
<text xml:space="preserve" transform="matrix(0 -.9042599 .9042599 0 12.8280949 169.29578)" font-size="12" font-family="HelveticaNeue"><tspan y="11.42395" x="19.63334 26.96534 33.63734 40.08134 43.74134 50.62934 56.62934 59.96534 68.62934 75.51734 82.18935 88.18935 94.86134 105.09734 112.21334 115.99334 118.65734 125.54534">Energy Consumption</tspan></text>
<text fill="#00733b" xml:space="preserve" transform="matrix(.9042599 0 -0 .9042599 39.2182 86.84033)" font-size="12" font-family="HelveticaNeue"><tspan y="11.42395" x="0 6.4440004 13.332001 20.004002 26.004002 32.676004 42.912004 49.356004">consume </tspan></text>
<text fill="#00733b" xml:space="preserve" transform="matrix(.9042599 0 -0 .9042599 39.2182 86.84033)" font-size="12" font-family="HelveticaNeue"><tspan y="25.73987" x="0 6.4440004 9.108001 15.552001 21.996003 25.776003 29.772004 32.436006 38.880006 41.544008 45.324007 51.324007 54.660005 58.440004 65.328">electricity to </tspan></text>
<text fill="#00733b" xml:space="preserve" transform="matrix(.9042599 0 -0 .9042599 39.2182 86.84033)" font-size="12" font-family="HelveticaNeue"><tspan y="40.05579" x="0 2.6640003 9.336001 15.780002 19.560002 26.004002 32.448 38.448 44.892004 48.228006 54.672006 61.344007 67.78801 71.44801 78.33601 84.33601">increase energy </tspan></text>
<text fill="#00733b" xml:space="preserve" transform="matrix(.9042599 0 -0 .9042599 39.2182 86.84033)" font-size="12" font-family="HelveticaNeue"><tspan y="54.3717" x="0 7.1160008 13.560001 23.796002 30.240002 36.912004">demand</tspan></text>
<text fill="#006fff" xml:space="preserve" transform="matrix(.9042599 0 -0 .9042599 145.0412 86.84033)" font-size="12" font-family="HelveticaNeue"><tspan y="11.42395" x="19.45351 22.11751 29.00551 38.10151 44.54551 48.541509 51.87751 55.429513 62.317514 68.31751 74.31751 76.981517 79.645519 82.981517 86.533519 93.20552 99.64952 102.31352 105.64952 112.09352 118.76552 125.20952 128.86952 135.75753 141.75753">lower fossil fuel energy </tspan></text>
<text fill="#006fff" xml:space="preserve" transform="matrix(.9042599 0 -0 .9042599 145.0412 86.84033)" font-size="12" font-family="HelveticaNeue"><tspan y="25.73987" x="5.245509 12.133509 18.577509 25.24951 31.69351 35.68951 42.13351 45.91351 48.57751 55.46551 62.137514 65.47351 69.46951 75.91351 86.14951 93.26551 97.93351 104.605518 111.72151 115.05751 118.83751 125.72551 129.06151 139.29752 145.74152 152.18552 155.96552">generation ramp-up to meet </tspan></text>
<text fill="#006fff" xml:space="preserve" transform="matrix(.9042599 0 -0 .9042599 145.0412 86.84033)" font-size="12" font-family="HelveticaNeue"><tspan y="40.05579" x="45.47551 52.14751 54.811513 61.699514 68.37151 71.70751 78.82351 85.26751 95.50351 101.94751 108.61951">high demand</tspan></text>
<text xml:space="preserve" transform="matrix(.9042599 0 -0 .9042599 34.526796 198.26529)" font-size="12" font-family="HelveticaNeue"><tspan y="11.42395" x="0 6.672001 13.344002 19.788002 30.024003 33.36 36.696 40.031999 43.367998 46.703996 50.039995 53.37599 56.71199 60.04799 63.383989 66.719989 70.055988 73.39198 76.72798 83.39998 89.84398 100.07998 103.41598 106.751979 110.087978 113.42397 116.75997 120.09597 123.43197 126.76797 130.10398 133.43997 136.77597 140.11197 143.44797 146.78397 150.11997 153.45597 156.79196 163.46396 170.13596 177.25196 187.48795 190.82395 194.15995 197.49594 200.83194 204.16794 207.50394 210.83994 214.17594 217.51194 220.84793 224.18393 227.51993 230.85593 234.19193 237.52793 240.86392 244.19992 247.53592 254.20792 261.3239 271.5599 274.8959 278.2319 281.5679 284.9039">12am              6am                 12pm                  6pm     </tspan></text>
<clipPath id="cp0">
<path transform="matrix(1,0,0,-1,-151.75,692.2691)" d="M 47.38167 60.85137 L 564.61837 60.85137 L 564.61837 739.7245 L 47.38167 739.7245 Z "/>
</clipPath>
<g clip-path="url(#cp0)">
<filter id="blend_4"><feBlend mode="darken" in2="BackgroundImage" in="SourceGraphic"/></filter>
<g filter="url(#blend_4)">
<path transform="matrix(1,0,0,-1,-151.75,692.2691)" d="M 249.5091 520.3103 C 245.7896 520.3103 242.7743 523.3256 242.7743 527.0452 C 242.7743 530.7647 245.7896 533.78 249.5091 533.78 L 249.6203 533.78 C 253.3399 533.78 256.3552 530.7647 256.3552 527.0452 C 256.3552 523.3256 253.3399 520.3103 249.6203 520.3103 Z M 249.6205 520.3103 C 245.901 520.3103 242.8857 523.3256 242.8857 527.0452 C 242.8857 530.7647 245.901 533.78 249.6205 533.78 C 253.348 533.78 256.3633 530.7647 256.3633 527.0452 C 256.3633 523.3256 253.348 520.3103 249.6205 520.3103 M 249.6285 533.78 C 253.348 533.78 256.3633 530.7647 256.3633 527.0452 C 256.3633 523.3256 253.348 520.3103 249.6285 520.3103 L 249.5194 520.3103 L 249.1414 520.3103 L 248.3751 520.3103 L 247.5781 520.3103 L 246.9424 520.3103 L 246.4534 520.3103 L 245.4644 520.3103 L 243.7509 520.3103 L 241.3275 520.3103 L 239.1123 520.3103 L 237.4602 520.3103 L 236.3714 520.3103 L 235.0743 520.3103 L 233.6305 520.3103 L 232.0399 520.3103 L 230.9511 520.3103 L 230.1558 520.3103 L 229.7377 520.3103 L 229.3486 520.3103 L 228.8161 520.3103 L 227.9064 520.3103 L 226.821 520.3103 L 225.7322 520.3103 L 224.9369 520.3103 L 224.1416 520.3103 L 223.1995 520.3103 L 222.1107 520.3103 L 221.0218 520.3103 L 220.3101 520.3103 L 219.8434 520.3103 L 219.6215 520.3103 L 219.3314 520.3103 L 218.7964 520.3103 L 218.0164 520.3103 L 216.9907 520.3103 L 216.1118 520.3103 L 215.4778 520.3103 L 215.1808 520.3103 L 214.982 520.3103 L 214.7891 520.3103 L 214.5878 520.3103 L 214.3864 520.3103 L 214.179 520.3103 L 213.9571 520.3103 L 213.3436 520.3103 L 212.6319 520.3103 L 211.8367 520.3103 L 210.9168 520.3103 L 210.5968 520.3103 L 210.3809 520.3103 L 210.1906 520.3103 L 210.0105 520.3103 L 209.8305 520.3103 L 209.6445 520.3103 L 209.2325 520.3223 C 209.1379 520.3267 209.9969 520.3292 209.7447 520.32 C 209.4721 520.31 211.341 520.5618 210.863 520.4595 C 210.4585 520.373 212.7899 521.1771 212.2997 520.9456 C 211.9425 520.777 213.2359 521.4826 213.0852 521.3843 C 212.9068 521.2679 213.1815 521.4445 213.0016 521.3296 L 212.3149 520.942 C 211.9021 520.7376 212.0528 520.8175 211.9618 520.7762 C 211.9113 520.7533 212.1023 520.8421 211.9918 520.7895 L 211.3317 520.5129 L 210.6637 520.3046 C 210.6493 520.3007 211.0304 520.4162 210.8831 520.3694 C 210.8004 520.3432 211.4007 520.5565 211.2384 520.4941 C 211.0624 520.4264 212.4018 521.0633 212.0263 520.8587 C 211.5585 520.6037 213.962 522.4363 213.5053 521.9741 C 213.2815 521.7475 214.1922 522.7896 214.0546 522.608 C 213.9263 522.4387 214.3018 522.9584 214.2801 522.9256 C 214.0851 522.6311 215.1484 524.8092 214.9581 524.28 C 214.8662 524.0242 215.1916 525.0881 215.1519 524.9243 C 215.1153 524.7739 215.2208 525.2474 215.213 525.2062 C 215.1643 524.9481 215.3172 526.0182 215.302 525.8472 C 215.2772 525.5673 215.3269 526.5483 215.3272 526.4275 C 215.3276 526.2701 215.3232 526.6274 215.3242 526.6002 L 215.3306 526.2789 C 215.3306 525.7874 215.3264 526.044 215.3195 525.8898 C 215.3151 525.7931 215.3151 526.576 215.3221 526.3587 C 215.3296 526.1272 215.1642 527.6245 215.2289 527.256 C 215.293 526.8913 214.8856 528.483 214.9732 528.2342 C 215.0525 528.0088 214.8259 528.6089 214.8352 528.5878 C 214.9225 528.3881 214.7244 528.8245 214.7285 528.8165 L 214.839 528.6001 L 215.1061 528.0538 L 215.3547 527.4362 C 215.3618 527.4171 215.2184 527.7661 215.2709 527.6439 C 215.3293 527.5081 214.8039 528.5315 214.964 528.2542 C 215.0825 528.0489 214.5031 528.9415 214.6116 528.7939 C 214.7633 528.5876 214.3654 529.1046 214.368 529.1016 L 214.6561 528.7558 L 214.901 528.4337 C 214.9151 528.415 214.7223 528.6538 214.7865 528.5769 C 214.8568 528.4927 214.3252 529.0671 214.4707 528.9215 C 214.702 528.6903 213.8308 529.4761 213.9448 529.3874 C 214.0878 529.276 213.8029 529.4949 213.9469 529.3895 C 214.1233 529.2605 214.4498 529.0252 214.8846 528.5904 C 215.3744 528.1006 215.6214 527.7432 215.7266 527.5996 C 215.7666 527.5449 215.6914 527.6444 215.7304 527.5933 C 215.7787 527.5298 215.2832 528.1136 215.4368 527.9446 C 215.548 527.8223 215.2549 528.1304 215.325 528.064 L 215.8988 527.4858 L 216.3982 526.9034 L 216.6911 526.6184 L 217.0906 526.2188 L 217.2886 526.0181 L 217.3153 525.9911 C 217.3274 525.9792 216.9247 526.3458 217.1059 526.1856 C 217.1586 526.139 216.8559 526.3882 217.1489 526.163 C 217.3124 526.0373 216.8186 526.3754 217.0437 526.2283 C 217.1779 526.1407 216.8605 526.3413 216.8828 526.3286 L 217.1946 526.1492 L 217.7897 525.7896 L 218.4065 525.3802 L 218.7281 525.1601 C 218.7558 525.1411 218.3991 525.3572 218.5608 525.2628 C 218.637 525.2184 218.4204 525.3341 218.5261 525.2791 C 218.6543 525.2124 217.4256 525.7091 217.7937 525.5863 C 218.0914 525.4871 216.8805 525.8135 217.0652 525.7778 C 217.3164 525.7294 216.6986 525.8347 216.7249 525.8318 L 217.3649 525.7407 L 218.0356 525.606 L 218.5725 525.4741 L 219.2393 525.2708 C 219.5635 525.1597 217.4987 525.6053 217.866 525.5701 C 218.1124 525.5464 217.1431 525.599 217.2865 525.5987 C 217.5138 525.5982 216.9287 525.5881 216.9441 525.5891 C 217.0047 525.593 217.6962 525.6715 218.6672 525.5405 L 220.4409 525.1979 L 222.1233 524.7578 L 223.4564 524.3262 L 223.7006 524.2662 C 224.0144 524.2012 223.2535 524.3196 223.5279 524.2937 C 223.7049 524.277 222.493 524.2946 222.7618 524.3081 C 222.8842 524.3143 222.5669 524.295 222.6177 524.2991 L 223.2114 524.3235 L 223.4248 524.3235 C 223.6842 524.3235 222.9397 524.3049 222.9829 524.308 C 222.9912 524.3086 223.7337 524.3987 224.7352 524.2311 C 225.5767 524.0904 225.7011 524.0011 225.7535 523.9862 L 226.196 523.8548 L 226.5755 523.7679 L 227.2871 523.7003 L 228.2125 523.6187 L 229.1797 523.5166 L 229.7866 523.4256 C 229.8216 523.4197 229.7298 523.4335 229.7777 523.4265 C 229.8386 523.4176 229.0615 523.4878 229.3309 523.4713 C 229.4398 523.4647 229.1571 523.4838 229.7197 523.4838 L 230.4314 523.4838 L 231.3044 523.4838 L 232.3241 523.4838 L 233.261 523.4838 L 234.0512 523.4838 L 234.8414 523.4838 L 235.2834 523.4778 C 235.3051 523.4774 234.8826 523.4589 235.0482 523.4697 C 235.3227 523.4875 234.8378 523.4502 235.1507 523.4961 L 235.3777 523.5274 C 235.4552 523.539 234.8847 523.4236 235.005 523.4534 C 235.1848 523.4979 234.8178 523.4015 234.8735 523.4194 L 235.28 523.5497 C 235.7093 523.6824 235.316 523.5336 235.5524 523.622 C 235.6338 523.6524 235.4664 523.5815 235.5217 523.6094 C 235.7391 523.7191 235.0599 523.343 235.0839 523.3587 L 235.673 523.7205 L 236.2313 524.008 C 236.2776 524.0308 235.5038 523.5879 235.7943 523.7649 C 235.899 523.8288 235.3159 523.4316 235.3972 523.4933 L 235.7181 523.7323 L 235.9802 523.9126 C 236.0082 523.9318 235.4086 523.4578 235.6298 523.6437 C 235.8119 523.7966 235.3807 523.4185 235.3869 523.4248 L 235.5664 523.6046 L 235.7551 523.796 L 236.0024 524.0458 L 236.2355 524.2815 L 236.395 524.4402 C 236.4132 524.4587 235.9856 523.9811 236.158 524.1809 C 236.1862 524.2136 235.8163 523.7145 235.854 523.7721 C 235.9914 523.9824 235.2404 522.5033 235.4393 522.9812 C 235.5522 523.2522 235.2088 522.325 235.2432 522.4379 C 235.3285 522.7177 235.0584 521.8149 235.2642 522.5349 L 235.3357 522.7827 C 235.4267 523.0914 235.1361 521.8879 235.1665 522.0609 C 235.2134 522.3279 235.1163 521.7248 235.126 521.7991 C 235.1778 522.1972 235.4868 523.6161 236.1835 524.7023 C 237.2827 526.416 237.4545 526.1721 237.6048 526.2953 L 237.7595 526.4187 C 237.7927 526.4449 237.4567 526.1639 237.5623 526.2553 C 237.6199 526.3051 237.244 525.9622 237.3385 526.0521 C 237.439 526.1478 236.7673 525.4422 236.9391 525.6371 C 237.1666 525.8951 236.2808 524.7477 236.4022 524.9331 C 236.4848 525.0591 236.2742 524.7286 236.2756 524.7309 C 236.3274 524.8179 236.796 525.5984 237.4831 526.2606 C 238.0974 526.8528 238.4444 527.0429 238.5102 527.0878 C 238.5229 527.0964 238.2979 526.9335 238.3874 526.9997 C 238.4866 527.0732 237.8272 526.5288 237.9879 526.6731 C 238.1379 526.8078 237.8177 526.5111 237.8455 526.5398 L 238.1153 526.8184 C 238.3855 527.0913 238.1101 526.7801 238.2871 526.9787 C 238.333 527.0302 237.8948 526.4324 238.0589 526.6763 C 238.1888 526.8693 237.7293 526.1225 237.7889 526.232 C 237.944 526.5172 237.4068 525.5248 237.8498 526.3683 L 237.9738 526.5983 C 239.746 529.8686 243.8337 531.083 247.1039 529.3109 C 250.3742 527.5387 251.5886 523.451 249.8165 520.1808 C 249.7208 520.0043 249.8041 520.1609 249.7746 520.1047 C 249.6728 519.9109 249.9392 520.4412 249.9217 520.403 C 249.8782 520.3085 249.7979 519.9943 249.2344 519.1569 L 248.3447 518.0189 L 247.6885 517.3428 L 246.9879 516.6515 L 246.1042 515.9628 C 246.0734 515.9418 246.3281 516.1254 246.2178 516.0443 C 246.0897 515.95 247.1059 516.8277 246.8308 516.5625 C 246.5666 516.3078 247.7161 517.6139 247.5292 517.36 C 247.3955 517.1785 247.8652 517.8652 247.8117 517.7784 C 247.7055 517.6061 247.6281 517.3933 247.0434 516.73 C 246.2263 515.803 246.1109 515.85 246.0447 515.7986 C 246.0253 515.7835 246.2468 515.9626 246.1443 515.8785 C 246.0836 515.8288 246.6138 516.2986 246.4535 516.1492 C 246.3655 516.0671 246.9625 516.6735 246.8078 516.5056 C 246.7256 516.4164 247.2113 516.9829 247.0983 516.8426 C 246.9797 516.6954 247.6856 517.6861 247.5211 517.4297 C 247.284 517.06 248.2821 519.0503 248.1254 518.6341 C 248.0094 518.3261 248.4389 519.7453 248.3821 519.4925 C 248.3412 519.3105 248.4821 520.046 248.4656 519.9367 C 248.4437 519.7921 248.4912 520.1183 248.4746 519.997 L 248.256 518.9747 L 248.2149 518.8318 C 248.1651 518.6576 248.286 519.1025 248.2796 519.0761 C 248.2681 519.0288 248.2956 518.8159 247.8746 517.8045 C 247.5889 517.1183 247.3806 516.7877 247.1288 516.4024 L 246.356 515.3813 C 245.7633 514.6942 245.8675 514.8654 245.8113 514.8085 L 245.5773 514.5719 L 245.3281 514.3202 L 245.0203 514.01 L 244.2946 513.3308 C 243.6604 512.7979 243.781 512.9385 243.5446 512.7697 C 243.4721 512.718 243.6813 512.871 243.5465 512.7685 L 242.8055 512.2638 L 242.0679 511.8685 C 242.0176 511.8443 242.4969 512.1042 242.2658 511.9745 C 242.054 511.8556 242.5729 512.1621 242.4633 512.0903 L 241.5881 511.5831 L 240.2709 511.0058 L 239.2569 510.6805 L 238.2444 510.379 L 237.1062 510.1691 L 235.9216 510.0283 L 234.8414 510.0141 L 234.0512 510.0141 L 233.261 510.0141 L 232.3241 510.0141 L 231.3044 510.0141 L 230.4314 510.0141 L 229.7197 510.0141 L 228.5118 510.0266 C 227.3622 510.0967 227.7337 510.1233 227.5413 510.1469 L 226.9274 510.2104 L 225.9794 510.2942 L 224.5235 510.4554 L 223.029 510.7627 L 222.0856 511.0256 L 221.7776 511.1172 C 221.7083 511.1384 222.8499 510.8896 222.5128 510.946 C 222.2131 510.9962 223.5695 510.8553 223.3304 510.8636 C 222.9901 510.8755 224.0389 510.8795 223.9721 510.8747 L 223.4248 510.8538 L 223.2114 510.8538 C 222.9485 510.8538 223.7437 510.8765 223.7006 510.873 C 223.6644 510.8701 222.8137 510.8315 222.2622 510.8836 L 220.9677 511.0767 L 219.6315 511.4109 L 218.3382 511.8309 L 217.3958 512.0769 L 216.8674 512.1916 C 216.6047 512.227 217.7132 512.1412 217.5359 512.143 C 217.292 512.1454 217.9023 512.1533 217.8311 512.1486 C 217.7124 512.1408 217.3754 512.0855 216.5781 512.1621 C 216.0566 512.2122 215.2785 512.3894 214.8698 512.5295 C 214.706 512.5857 214.8641 512.5321 214.7753 512.563 C 214.6671 512.6007 215.4101 512.3797 215.2373 512.4238 L 215.1139 512.457 L 214.9556 512.4882 C 214.776 512.5208 215.2891 512.4386 215.2617 512.4418 C 215.252 512.4429 214.6356 512.4407 213.534 512.8079 C 212.4913 513.1555 211.9792 513.5082 211.7735 513.6282 L 210.9349 514.1727 L 210.558 514.4258 L 210.3252 514.5629 L 209.6778 514.9511 L 208.9397 515.4839 L 208.183 516.0953 L 207.5659 516.6945 L 207.1668 517.0936 L 206.4953 517.7729 L 206.0013 518.3494 C 205.8832 518.4774 205.9995 518.3014 205.4699 518.884 L 204.8593 519.6413 C 204.8549 519.6472 205.0366 519.4157 204.9618 519.5088 C 204.8781 519.6129 205.5467 518.8793 205.3601 519.0659 C 205.1271 519.2988 206.0018 518.5098 205.8878 518.5985 C 205.7449 518.7097 206.0283 518.4921 205.8833 518.5981 C 205.7062 518.7278 205.3796 518.9636 204.9465 519.3967 L 204.1635 520.3011 C 204.0406 520.4633 204.1995 520.2636 204.1008 520.3881 C 203.9918 520.5256 204.2372 520.2215 204.1005 520.3832 C 203.9291 520.586 203.602 520.9941 203.2975 521.5217 C 202.9208 522.1745 202.8007 522.5503 202.7298 522.741 L 202.6967 522.831 C 202.6837 522.8658 202.9085 522.3361 202.8259 522.5194 C 202.7554 522.6758 202.9231 522.3129 202.7912 522.5766 L 202.4927 523.1937 C 202.3964 523.414 202.1134 524.0667 201.9626 524.9241 C 201.8243 525.7112 201.851 526.2197 201.8632 526.4918 L 201.8719 526.6512 C 201.8738 526.682 201.8609 526.0439 201.8609 526.2789 C 201.8609 526.4585 201.865 526.0497 201.8612 526.1767 C 201.8559 526.349 201.7872 526.7002 201.9781 527.7099 C 202.0516 528.0985 202.5538 529.614 203.0496 530.3626 C 203.2622 530.6836 204.4662 532.0785 205.5796 532.6854 C 206.9239 533.4182 207.0241 533.2739 207.1488 533.3076 C 207.2149 533.3258 206.4519 533.0708 206.7194 533.1683 C 206.8439 533.2137 206.0809 532.8936 206.196 532.9485 L 206.3903 533.0396 C 206.4336 533.0593 205.9706 532.8311 206.3371 533.0125 C 206.5079 533.0971 205.6448 532.6155 205.8081 532.7174 C 205.9251 532.7903 205.5779 532.5666 205.5902 532.5751 C 205.6708 532.6302 207.0446 533.4172 208.0447 533.6311 C 209.0312 533.8422 209.5917 533.7899 209.8623 533.7773 L 209.9936 533.77 C 210.0336 533.7677 209.4453 533.78 209.6445 533.78 L 209.8305 533.78 L 210.0105 533.78 L 210.1906 533.78 L 210.3809 533.78 L 210.5968 533.78 L 210.9168 533.78 L 211.8367 533.78 L 212.6319 533.78 L 213.3436 533.78 L 213.9571 533.78 L 214.179 533.78 L 214.3864 533.78 L 214.5878 533.78 L 214.7891 533.78 L 214.982 533.78 L 215.1808 533.78 L 215.4778 533.78 L 216.1118 533.78 L 216.9907 533.78 L 218.0164 533.78 L 218.7964 533.78 L 219.3314 533.78 L 219.6215 533.78 L 219.8434 533.78 L 220.3101 533.78 L 221.0218 533.78 L 222.1107 533.78 L 223.1995 533.78 L 224.1416 533.78 L 224.9369 533.78 L 225.7322 533.78 L 226.821 533.78 L 227.9064 533.78 L 228.8161 533.78 L 229.3486 533.78 L 229.7377 533.78 L 230.1558 533.78 L 230.9511 533.78 L 232.0399 533.78 L 233.6305 533.78 L 235.0743 533.78 L 236.3714 533.78 L 237.4602 533.78 L 239.1123 533.78 L 241.3275 533.78 L 243.7509 533.78 L 245.4644 533.78 L 246.4534 533.78 L 246.9424 533.78 L 247.5781 533.78 L 248.3751 533.78 L 249.1414 533.78 L 249.5194 533.78 Z " fill="#60ba46" fill-opacity=".4196"/>
</g>
<g filter="url(#blend_4)">
<path transform="matrix(1,0,0,-1,-151.75,692.2691)" d="M 367.0688 623.7028 C 363.3493 623.7028 360.334 626.7181 360.334 630.4377 C 360.334 634.1572 363.3493 637.1725 367.0688 637.1725 L 367.4596 637.1725 L 368.1029 637.1725 L 369.3896 637.1725 L 371.0891 637.1725 L 372.803 637.1725 L 374.3377 637.1725 L 375.4394 637.1725 L 376.8574 637.1725 L 378.6317 637.1702 L 380.5437 637.0737 L 382.2185 636.9622 L 383.4812 636.7818 L 384.4942 636.7129 L 385.554 636.625 L 386.7605 636.5378 L 387.9506 636.4428 L 388.6635 636.3675 C 388.7732 636.3604 388.2967 636.3725 388.3524 636.3738 L 388.7279 636.3812 L 389.1097 636.3812 L 389.9794 636.3635 L 391.0593 636.2316 L 393.3123 635.8515 L 394.5901 635.6984 L 395.7321 635.5503 L 396.3585 635.4843 L 396.8826 635.4067 L 396.9166 635.4009 C 396.9493 635.3958 396.4078 635.4593 396.609 635.4395 C 396.766 635.4241 395.362 635.4365 395.6758 635.4551 L 396.1779 635.4718 L 396.3419 635.4718 C 396.4936 635.4718 395.7449 635.4433 395.8702 635.4532 L 397.2061 635.4427 L 397.9789 635.348 L 398.872 635.2697 L 399.6171 635.1991 C 399.7305 635.1933 399.5175 635.208 399.9901 635.208 L 400.4193 635.208 L 400.7736 635.208 L 400.9376 635.208 L 401.6929 635.208 L 402.4127 635.208 L 403.1961 635.208 L 403.6909 635.208 C 403.722 635.208 403.7403 635.2771 404.7343 635.1672 C 405.0373 635.1337 405.4897 635.0817 406.1813 634.8494 C 406.7359 634.6631 407.4135 634.3236 407.8997 633.9852 L 408.404 633.5979 C 408.433 633.5735 407.8955 633.991 408.075 633.8581 C 408.3623 633.6453 406.6978 634.6553 407.0524 634.4811 C 407.3973 634.3115 405.9035 634.9231 406.1524 634.8437 C 406.4859 634.7374 405.2431 635.0667 405.4107 635.0339 C 405.6666 634.9839 405.0918 635.088 405.1315 635.0822 C 405.3751 635.0462 406.2498 634.8797 407.0364 634.5272 L 407.8338 634.1116 C 407.8417 634.107 407.135 634.4502 407.404 634.3296 C 407.5446 634.2666 407.2462 634.3955 407.3169 634.3687 L 407.8043 634.1789 L 408.3287 633.9522 C 408.396 633.9226 407.9271 634.0923 408.1592 634.0128 C 408.2942 633.9666 407.7774 634.1204 407.8431 634.1049 C 407.897 634.0922 407.7916 634.116 407.8756 634.0996 C 408.0691 634.0619 407.5541 634.1499 407.5572 634.1495 L 408.0476 634.0909 L 408.569 634.0055 L 409.1791 633.8998 L 409.8968 633.739 C 410.2196 633.6817 409.5949 633.7728 409.7303 633.7637 C 409.8425 633.7562 408.893 633.7789 409.6671 633.7789 L 409.7062 633.7789 C 413.4258 633.7789 416.4411 630.7636 416.4411 627.044 C 416.4411 623.3245 413.4258 620.3092 409.7062 620.3092 L 409.6671 620.3092 C 409.5296 620.3092 410.0801 620.3241 410.0184 620.3202 L 408.827 620.3244 L 407.5439 620.4764 L 406.5083 620.6975 C 406.3752 620.7244 406.6225 620.6744 406.3546 620.7191 L 406.112 620.761 C 405.9487 620.7847 406.2742 620.7403 406.1352 620.7551 L 405.2946 620.8795 C 405.0763 620.9221 404.505 621.0267 403.7961 621.2694 C 402.9358 621.5639 402.8035 621.6715 402.7096 621.7098 L 401.8951 622.0379 L 401.0497 622.4751 C 400.9985 622.5049 401.1049 622.4445 401.0482 622.4765 C 400.9764 622.517 401.7963 622.1151 401.5287 622.235 C 401.0147 622.4653 403.3231 621.7245 402.9643 621.7899 C 402.8074 621.8185 403.2059 621.7506 403.1343 621.7613 C 403.0235 621.778 402.7199 621.8003 402.0599 622.0108 C 401.629 622.1482 401.0408 622.3903 400.471 622.7509 L 399.7137 623.3066 C 399.703 623.3157 399.979 623.0926 399.8791 623.1714 C 399.6827 623.3267 401.1701 622.3555 400.7875 622.5672 C 400.2087 622.8873 402.8213 621.8268 402.3893 621.9352 C 401.9886 622.0357 403.4454 621.7579 403.2537 621.7791 C 403.0269 621.8042 403.9644 621.7396 403.8269 621.7421 C 403.6486 621.7453 404.0296 621.7421 403.9835 621.7412 L 403.6909 621.7383 L 403.1961 621.7383 L 402.4127 621.7383 L 401.6929 621.7383 L 400.9376 621.7383 L 400.7736 621.7383 L 400.4193 621.7383 L 399.9901 621.7383 L 398.9262 621.7472 L 397.6845 621.8525 L 396.5909 621.95 L 395.9555 622.0312 C 395.8961 622.0367 396.4457 622.0064 396.2827 622.0115 C 396.0158 622.0197 397.0954 622.0398 397.0294 622.0337 L 396.3419 622.0021 L 396.1779 622.0021 C 395.9386 622.0021 396.7477 622.0253 396.4734 622.009 L 395.2916 622.0344 C 394.4697 622.1152 394.8534 622.0981 394.7025 622.1168 L 394.1131 622.1782 L 392.9153 622.3332 L 391.3074 622.5318 L 388.9136 622.9339 C 388.7296 622.9635 389.0192 622.9281 389.0038 622.9292 C 388.7975 622.9442 389.4925 622.9182 389.4391 622.9171 L 389.1097 622.9115 L 388.7279 622.9115 C 388.5866 622.9115 388.8539 622.9122 388.6715 622.9079 L 387.8025 622.9253 L 386.7599 623.0258 L 385.7425 623.1066 L 384.5162 623.1953 L 383.4576 623.2832 L 382.0325 623.3902 L 380.8569 623.5615 L 379.7772 623.6258 L 378.2733 623.7052 L 376.8574 623.7028 L 375.4394 623.7028 L 374.3377 623.7028 L 372.803 623.7028 L 371.0891 623.7028 L 369.3896 623.7028 L 368.1029 623.7028 L 367.4596 623.7028 Z M 409.7062 633.7789 C 413.4258 633.7789 416.4411 630.7636 416.4411 627.044 C 416.4411 623.3245 413.4258 620.3092 409.7062 620.3092 L 409.6868 620.3092 L 409.387 620.3092 L 408.8883 620.3092 L 408.3896 620.3092 L 407.778 620.3092 L 406.9443 620.3129 C 406.743 620.3195 406.0916 620.2299 404.6898 620.4708 C 403.2946 620.7106 402.013 621.4305 401.8716 621.5094 C 400.8703 622.0684 400.5833 622.3845 400.4312 622.5039 C 400.2576 622.6403 399.8927 622.8678 399.2022 623.5773 C 398.7725 624.0188 398.4517 624.4595 398.2804 624.7118 C 398.1397 624.919 398.44 624.5046 398.2937 624.7023 L 398.1251 624.9379 C 398.0942 624.9766 398.1578 624.8994 398.1318 624.9274 C 398.048 625.0175 398.4231 624.6643 398.2855 624.7858 C 398.0981 624.9512 398.4028 624.6816 398.1178 624.9081 L 397.4605 625.4319 L 396.7101 626.0764 L 396.1298 626.5854 L 395.782 626.9057 C 395.7705 626.9165 395.8657 626.8312 395.8235 626.8685 C 395.774 626.9122 396.2383 626.5358 396.0973 626.6439 C 395.7815 626.8858 396.9654 626.0964 396.8174 626.1763 C 396.6964 626.2416 396.962 626.0911 396.6213 626.2796 C 396.5265 626.3321 396.9746 626.1098 396.924 626.1322 C 396.7555 626.2069 397.4438 625.9299 397.3059 625.9792 C 397.2319 626.0057 397.7467 625.8389 397.6088 625.8801 C 397.4588 625.9248 398.7535 625.6373 398.3553 625.7057 C 398.0371 625.7605 399.4624 625.6082 399.2142 625.617 C 398.862 625.6295 399.9433 625.6332 399.8738 625.6283 L 399.3425 625.6083 L 399.1883 625.6083 L 399.0341 625.6083 C 398.7474 625.6083 399.6811 625.6407 399.5981 625.6333 C 399.4975 625.6242 398.6457 625.4647 397.2693 625.8036 C 394.6744 626.4424 395.0404 626.7335 394.3767 627.3053 L 393.3073 628.4428 L 392.9054 629.0247 C 392.9041 629.0269 393.0018 628.8789 392.9593 628.9425 C 392.9351 628.9786 393.1207 628.7121 393.0686 628.7847 C 393.0121 628.8635 393.4781 628.2664 393.3398 628.4334 C 393.1589 628.6517 393.9156 627.8316 393.8206 627.9208 L 393.5829 628.1485 L 393.4386 628.2953 C 393.4376 628.2963 393.5305 628.2043 393.4916 628.2424 C 393.4461 628.2871 393.9852 627.8022 393.7952 627.9647 C 393.6027 628.1295 394.9881 627.1728 394.8544 627.244 C 394.7283 627.3112 395.94 626.7819 395.5907 626.9127 C 395.2308 627.0474 396.9593 626.5613 396.6533 626.6177 C 396.3911 626.6661 397.448 626.5185 397.2834 626.5326 C 397.0148 626.5557 397.9706 626.5094 397.8474 626.509 C 397.6827 626.5086 398.0875 626.5145 398.085 626.5144 L 397.7336 626.5059 L 397.5919 626.5059 L 397.4475 626.5059 L 397.2986 626.5059 L 397.1431 626.5059 L 396.9836 626.5059 L 396.813 626.5059 L 396.5781 626.5059 L 396.2678 626.5059 L 395.8931 626.5059 L 395.508 626.5059 L 395.0099 626.5059 L 394.399 626.5059 L 393.6747 626.5059 L 392.8374 626.5059 L 391.8879 626.5059 L 390.9385 626.5059 L 389.7161 626.5059 L 389.1531 626.5059 L 388.4772 626.5059 L 387.6885 626.5059 L 387.077 626.5059 L 386.5783 626.5059 L 386.279 626.5092 C 386.2712 626.5093 386.5269 626.5109 386.4296 626.5094 C 386.3207 626.5077 387.1187 626.556 386.9105 626.5362 C 386.8032 626.526 387.6737 626.6535 387.4312 626.6091 C 387.0421 626.5377 388.6109 626.9423 388.4598 626.8874 L 388.1286 626.7742 C 387.8533 626.687 388.5588 626.9267 388.5077 626.907 C 388.2853 626.8214 388.6906 626.9783 388.4775 626.8933 C 388.3407 626.8387 388.7875 627.025 388.6167 626.9506 L 387.8083 626.6546 L 387.342 626.5286 L 387.1454 626.4752 C 386.9527 626.423 387.5423 626.5976 387.4991 626.5829 C 387.469 626.5726 386.8565 626.2941 385.697 626.1995 L 384.5995 626.1846 C 384.5764 626.1856 384.8023 626.1818 384.7102 626.1824 C 384.6073 626.1831 385.3116 626.2122 385.1367 626.1983 C 384.8682 626.177 385.5083 626.2425 385.4924 626.2397 L 385.0803 626.17 L 384.7215 626.1184 C 384.6869 626.1135 385.1064 626.1981 384.9084 626.155 C 384.68 626.1054 385.2152 626.2334 385.2069 626.2308 L 384.7276 626.0888 L 383.648 625.8843 C 383.5968 625.8782 384.0981 625.9524 383.9502 625.9276 C 383.451 625.8437 386.2514 626.7586 385.7397 626.5057 C 385.3521 626.3141 386.8085 627.1594 386.6007 627.0146 C 386.2397 626.7629 387.4629 627.7268 387.312 627.5871 C 387.0728 627.3655 387.835 628.1303 387.7502 628.0346 C 387.5365 627.7932 388.5765 628.9603 387.6879 627.9584 C 387.6509 627.9166 388.0513 628.3886 387.764 628.0449 C 385.3789 625.1907 381.1316 624.8105 378.2774 627.1956 C 375.4233 629.5807 375.043 633.828 377.4282 636.6822 C 377.5454 636.8225 377.1363 636.3139 377.2967 636.5198 L 377.6104 636.8958 C 377.7499 637.053 377.376 636.6169 377.4064 636.6546 C 377.6204 636.92 377.3887 636.6388 377.5438 636.8229 C 377.7233 637.036 377.279 637.3488 379.7709 638.5807 C 380.5422 638.9619 381.7306 639.2211 382.0682 639.261 C 382.1706 639.2731 381.718 639.2099 381.8966 639.2371 C 382.0899 639.2667 381.0407 639.046 381.2525 639.1025 C 381.4816 639.1637 381.0776 639.0527 381.2162 639.0957 L 382.0474 639.3174 L 383.0016 639.4783 C 383.0146 639.4803 383.2494 639.5606 384.0715 639.6258 L 385.183 639.6416 C 385.2338 639.6394 385.0327 639.644 385.1239 639.6426 C 385.2309 639.6409 384.3657 639.6054 384.6018 639.6246 C 384.9526 639.6533 383.4406 639.4248 383.6897 639.4826 C 383.8678 639.5239 383.1658 639.3372 383.2679 639.3687 C 383.4046 639.411 383.0849 639.3088 383.1325 639.3251 L 383.6228 639.4762 L 383.8954 639.5499 L 384.1132 639.6054 C 384.1308 639.6098 383.7214 639.491 383.9212 639.5512 C 384.0602 639.5931 383.0314 639.2097 383.2345 639.2982 L 383.4872 639.4044 C 383.6691 639.477 382.8626 639.2352 384.0603 639.6149 C 384.2711 639.6816 383.6933 639.5 384.1276 639.6389 C 384.6506 639.8063 385.3177 639.9152 385.635 639.9454 C 386.5428 640.0318 386.566 639.9756 386.5783 639.9756 L 387.077 639.9756 L 387.6885 639.9756 L 388.4772 639.9756 L 389.1531 639.9756 L 389.7161 639.9756 L 390.9385 639.9756 L 391.8879 639.9756 L 392.8374 639.9756 L 393.6747 639.9756 L 394.399 639.9756 L 395.0099 639.9756 L 395.508 639.9756 L 395.8931 639.9756 L 396.2678 639.9756 L 396.5781 639.9756 L 396.813 639.9756 L 396.9836 639.9756 L 397.1431 639.9756 L 397.2986 639.9756 L 397.4475 639.9756 L 397.5919 639.9756 L 397.7336 639.9756 C 397.9177 639.9756 397.4482 639.9691 397.4662 639.9699 C 397.4783 639.9705 397.6581 640.1293 399.0968 639.864 C 399.8421 639.7264 400.8118 639.3322 401.1883 639.1316 C 401.4198 639.0083 402.2268 638.4779 402.5537 638.1981 C 403.2423 637.6087 403.0553 637.7251 403.1074 637.673 C 403.2647 637.5157 402.9173 637.8563 403.0426 637.7385 L 403.7131 637.0256 C 404.2314 636.3998 404.2322 636.3149 404.2821 636.2362 L 404.2878 636.2269 C 404.3 636.208 404.1839 636.3826 404.2199 636.3295 C 404.2599 636.2705 403.8851 636.7844 404.0045 636.6283 C 404.0283 636.5972 403.0438 637.6177 403.1717 637.5074 C 403.4992 637.2252 402.1589 638.2295 402.4171 638.0666 C 402.5538 637.9804 401.6203 638.5 401.8687 638.3756 C 402.0006 638.3096 401.1644 638.6821 401.3716 638.5991 C 401.5899 638.5116 400.099 638.9788 400.4893 638.8827 C 400.9238 638.7758 398.8977 639.0818 399.2615 639.0634 C 399.5241 639.0501 398.4522 639.0557 398.6155 639.0638 C 398.8366 639.0748 398.3075 639.041 398.3643 639.0463 L 399.0341 639.078 L 399.1883 639.078 L 399.3425 639.078 C 399.6017 639.078 398.8488 639.059 398.8956 639.0624 C 398.9167 639.0639 399.6141 639.1568 400.6388 638.9805 C 402.0647 638.7353 401.99 638.6202 402.3798 638.4475 L 403.1433 638.065 C 403.2921 637.9827 402.9577 638.1634 402.9788 638.1527 C 403.1137 638.0846 403.6405 637.833 404.2875 637.3375 C 405.025 636.7727 405.0132 636.7109 405.0747 636.6562 L 405.54 636.2482 L 406.0616 635.7979 L 406.4987 635.453 L 407.1995 634.884 L 407.9965 634.0991 L 408.6462 633.3486 L 409.1205 632.7156 L 409.4247 632.2773 C 409.498 632.1693 408.5698 633.2648 408.8549 632.9718 C 408.9661 632.8576 408.583 633.2298 408.6283 633.1896 C 408.7312 633.0981 408.5944 633.2201 408.7519 633.0963 L 408.9274 632.9583 C 408.9398 632.949 408.7444 633.0862 408.8127 633.0397 C 408.889 632.9878 408.252 633.374 408.4373 633.2706 L 408.5732 633.1941 C 408.5936 633.1829 408.3038 633.3307 408.3993 633.284 C 408.7301 633.1221 406.5091 633.8253 406.9715 633.7458 C 407.1487 633.7154 406.5809 633.7929 406.6344 633.789 L 407.3888 633.7752 L 407.778 633.7789 L 408.3896 633.7789 L 408.8883 633.7789 L 409.387 633.7789 L 409.6868 633.7789 Z " fill="#1749b3" fill-opacity=".4196"/>
</g>
<path transform="matrix(1,0,0,-1,-151.75,692.2691)" d="M 185.0999 683.3276 C 185.0999 684.0715 185.703 684.6746 186.4469 684.6746 C 187.1908 684.6746 187.7938 684.0715 187.7938 683.3276 L 187.7938 498.5251 C 187.7938 497.7812 187.1908 497.1782 186.4469 497.1782 C 185.703 497.1782 185.0999 497.7812 185.0999 498.5251 Z "/>
<path transform="matrix(1,0,0,-1,-151.75,692.2691)" d="M 186.4469 497.1782 C 185.703 497.1782 185.0999 497.7812 185.0999 498.5251 C 185.0999 499.269 185.703 499.8721 186.4469 499.8721 L 460.0035 499.8721 C 460.7474 499.8721 461.3504 499.269 461.3504 498.5251 C 461.3504 497.7812 460.7474 497.1782 460.0035 497.1782 Z "/>
<path transform="matrix(1,0,0,-1,-151.75,692.2691)" d="M 187.3939 540.5504 C 186.4506 540.5462 185.6825 541.3076 185.6783 542.2509 C 185.6742 543.1943 186.4355 543.9624 187.3788 543.9665 C 187.3839 543.9665 187.3889 543.9665 187.3939 543.9665 L 187.4705 543.9662 L 187.5738 543.9632 C 187.9512 543.9206 187.7033 543.9542 187.7822 543.9516 C 188.074 543.9419 188.3584 543.8569 188.6077 543.705 C 188.8168 543.5775 188.1675 543.895 188.2367 543.8733 C 188.3492 543.838 188.0191 543.9253 188.0499 543.9197 C 188.1805 543.8959 187.9846 543.948 188.275 543.8871 C 188.2628 543.9006 187.5206 543.8458 187.6011 543.8698 C 187.6771 543.8924 188.8579 543.969 189.4155 543.6085 C 190.1576 543.1426 191.2785 542.4393 192.2685 541.4327 C 193.0713 540.5935 193.6071 539.6527 194.2231 538.6753 L 195.6659 536.0525 L 196.9046 533.9 L 197.5121 532.8469 L 197.9131 532.3869 L 198.4486 531.7646 L 199.0551 530.8637 L 199.6248 529.8277 L 200.0345 529.0099 L 200.27 528.5506 L 200.5884 528.079 L 201.1161 527.2606 L 201.9629 525.6192 L 203.8366 522.2008 C 204.1373 521.6924 204.1913 521.6647 204.4671 521.3033 L 204.9814 520.7595 L 205.3954 520.3431 L 205.8968 519.7696 L 206.4692 519.0618 L 206.8105 518.6278 C 206.9382 518.4958 206.7424 518.6707 207.0081 518.481 L 207.5285 518.1395 L 208.1193 517.7289 L 208.8703 517.265 L 209.385 516.9562 L 209.8504 516.8064 L 210.3492 516.5641 L 211.3826 516.2128 L 213.0249 515.5776 L 215.2447 514.7446 L 217.1084 513.9836 L 218.346 513.5754 L 218.3798 513.5865 C 218.5553 513.5941 218.4364 513.5779 218.4852 513.5885 L 219.0993 513.6494 L 220.0391 513.5627 L 221.2719 513.4509 L 222.5365 513.3083 L 223.4596 513.2099 L 224.3596 513.1308 L 225.4544 513.0421 L 227.0576 512.8665 L 228.8362 512.6727 L 230.9712 512.4917 L 234.4087 512.4879 L 235.0492 512.4959 C 235.4259 512.5686 235.4415 512.5669 235.9086 512.7776 L 237.4619 513.5765 L 239.4645 514.7618 L 241.4885 516.0128 L 243.13 517.0758 L 244.5038 518.0126 L 245.6709 518.8996 L 246.9852 519.9072 L 248.2606 521.0703 L 249.5401 522.5859 L 250.6957 523.9887 L 251.7434 525.423 L 252.6529 526.5637 C 253.3066 527.5852 253.8421 528.5029 254.4465 529.6719 L 255.3 531.6168 L 256.4134 534.0549 L 257.4196 536.2503 L 258.6372 538.9064 L 259.8634 541.8165 L 261.1658 545.2299 L 262.4559 548.6574 L 263.5038 551.6276 L 264.4475 554.1165 L 266.0167 558.5552 L 266.8046 560.9485 L 267.4383 563.152 L 268.0818 565.3786 L 269.0818 568.7553 L 269.5512 570.4633 L 270.0398 572.3546 L 270.7413 574.8249 L 271.4991 577.2882 L 272.3952 579.7542 L 273.1279 581.637 L 273.639 582.9511 L 273.9594 583.7364 L 274.3821 584.9017 L 275.004 586.4393 L 275.8151 588.4111 L 276.4411 590.2377 L 276.9892 591.7675 L 277.4717 592.9922 L 278.1188 594.3409 L 279.0698 596.2373 L 280.0948 598.2915 L 281.0525 600.0287 L 281.6788 600.981 L 282.2202 601.7328 L 282.7028 602.4232 L 283.2701 603.2752 L 283.8499 604.0006 L 284.3793 604.6546 L 284.9254 605.3233 L 285.6994 606.2101 L 286.6199 607.0992 L 287.8245 608.2535 L 289.172 609.4483 L 291.8829 611.5777 L 292.9426 612.4186 L 293.8661 613.025 C 294.0535 613.1403 294.3544 613.3861 294.8676 613.6036 C 295.4488 613.8383 295.9167 613.9185 296.26 614.0361 L 297.7107 614.5572 L 299.4814 615.1153 L 301.0378 615.7991 L 302.6323 616.403 L 303.9965 616.9796 L 305.535 617.5656 L 307.2851 618.4285 L 309.0478 619.2992 L 310.4572 620.1302 L 311.5999 620.74 L 312.7077 621.2271 L 314.1304 621.8122 L 315.6595 622.5615 L 317.0797 623.4258 L 318.0259 624.0781 L 318.8323 624.5794 L 319.751 624.9612 L 320.7072 625.2705 L 321.7274 625.6428 L 322.3939 625.9534 L 322.978 626.3005 L 323.5332 626.6048 L 323.832 626.7405 L 324.0488 626.8791 L 324.367 627.0605 C 324.4795 627.1254 324.2 626.9525 324.2878 627.0155 L 324.8499 627.2989 C 325.5039 627.4838 325.5023 627.3838 325.5076 627.3839 L 325.8456 627.3725 L 326.0329 627.3601 C 326.0406 627.3596 325.8375 627.3493 325.9127 627.3565 C 325.9679 627.3615 325.8601 627.3452 325.9259 627.3651 L 326.2283 627.4856 L 326.6883 627.6626 L 327.2323 627.8373 L 327.6123 627.955 L 327.9666 628.1285 L 328.209 628.2774 L 328.4252 628.4613 L 328.6945 628.6894 L 329.0371 628.9778 C 329.1647 629.079 329.3066 629.1607 329.4582 629.2202 C 329.5669 629.2629 329.2493 629.1209 329.2801 629.1376 C 329.4413 629.2247 329.1773 629.0765 329.195 629.0884 L 329.5519 629.3259 L 329.861 629.5501 L 330.4638 629.8473 L 330.9709 630.0922 L 331.3495 630.295 L 331.8739 630.5958 L 332.6031 630.9051 L 333.2739 631.1883 L 334.1257 631.5099 L 335.0499 631.8198 L 336.1035 632.0327 L 337.0616 632.1948 L 337.9352 632.3411 L 338.968 632.6015 L 340.0772 632.8732 L 341.5375 633.2008 L 343.0146 633.5349 L 344.4632 633.8004 L 345.5694 634.0402 L 346.3546 634.2464 L 347.148 634.4958 L 348.2197 634.6202 L 349.5456 634.5926 L 351.085 634.6705 L 352.6099 634.7465 L 353.9009 634.9501 L 355.2338 635.1665 L 357.0272 635.5265 L 359.071 635.8775 L 361.5149 636.2404 L 363.9375 636.6056 L 366.5956 637.0201 L 369.2507 637.3036 L 371.6701 637.5954 L 373.7268 637.7607 L 375.0246 638.0027 L 375.4332 638.0854 L 375.5958 638.1175 C 375.6247 638.1238 375.4117 638.049 375.524 638.0918 C 375.7117 638.1496 374.8115 637.6041 375.484 638.0714 C 375.6059 638.1561 375.7394 638.2227 375.8804 638.2692 L 376.2081 638.3506 C 376.2515 638.3581 375.8284 638.2217 375.8876 638.2499 C 376.6838 638.6281 377.6357 638.2893 378.0139 637.4931 C 378.3921 636.697 378.0533 635.745 377.2572 635.3669 C 377.0629 635.2746 376.8519 635.2225 376.637 635.2138 C 376.2276 635.1972 375.6597 635.4691 375.634 635.4856 C 375.5651 635.5295 376.5784 635.2695 376.3558 635.2703 C 376.2074 635.2709 376.0598 635.2929 375.9178 635.3358 C 375.8445 635.3578 376.3283 635.2739 376.226 635.2804 C 376.0895 635.2891 376.3829 635.2805 376.3476 635.2779 L 376.1142 635.2634 L 375.285 635.2605 L 373.9488 635.1168 L 371.8788 635.0551 L 369.5025 634.8258 L 366.9363 634.5259 L 364.3577 634.063 L 361.9568 633.613 L 359.564 633.1591 L 357.59 632.7539 L 355.7826 632.3565 L 354.3653 632.1118 L 352.9292 631.8562 L 351.3001 631.7012 L 349.6742 631.5468 L 348.3925 631.5186 L 347.7763 631.459 L 347.0794 631.2995 L 346.1566 631.1217 L 344.9901 630.9139 L 343.6011 630.6628 L 342.2269 630.3121 L 340.8127 629.9497 L 339.7454 629.6547 L 338.6029 629.3471 L 337.6039 629.1579 L 336.6946 628.9868 L 335.8859 628.8076 L 335.2384 628.5595 L 334.5065 628.2538 L 333.8873 627.9715 L 333.3326 627.7203 L 332.9706 627.4888 L 332.3608 627.1934 L 331.9341 626.9666 L 331.5284 626.7575 L 331.3456 626.6103 L 331.2215 626.5092 L 331.1426 626.4464 L 331.1792 626.479 L 331.2313 626.5291 C 331.2041 626.5017 331.4505 626.7947 331.373 626.6924 C 331.2746 626.5625 331.1574 626.448 331.0254 626.3525 L 330.7358 626.1465 L 330.406 625.9022 L 330.0299 625.6184 L 329.4877 625.293 L 328.8819 624.9771 L 328.2644 624.7545 L 327.8178 624.5972 L 327.4542 624.443 L 326.9602 624.2357 L 326.3464 624.0654 L 325.8059 624.0323 L 325.6619 624.0261 L 325.3261 624.0316 L 325.379 624.03 C 325.3308 624.0304 325.7802 624.0755 325.6439 624.0521 C 325.4677 624.0271 325.9138 624.1341 325.8715 624.1174 L 325.63 624.0315 C 325.3438 623.9461 325.6147 624.0445 325.5649 624.0248 C 325.2808 623.9333 325.5689 624.0289 325.5188 624.0059 L 325.234 623.8835 L 324.7907 623.7344 L 324.4323 623.5657 L 323.7769 623.2055 L 322.8858 622.7945 L 321.7162 622.3631 L 320.7295 622.0841 L 320.0531 621.8839 L 319.5781 621.6142 L 318.6319 620.9754 L 317.0836 620.0043 L 315.378 619.1291 L 313.8112 618.5331 L 312.7449 618.1556 L 311.7684 617.694 L 310.3358 616.8698 L 308.527 615.9487 L 306.6862 615.0097 L 305.0431 614.376 L 303.6608 613.8025 L 302.1115 613.2012 L 300.5211 612.4475 L 298.7088 611.7907 L 297.2585 611.2142 L 296.0224 610.8347 L 295.3964 610.4825 L 294.591 610.0284 L 293.65 609.3048 L 291.0075 607.2054 L 289.8496 606.1166 L 288.7695 604.9786 L 287.9685 604.1384 L 287.3079 603.3493 L 286.7839 602.7045 L 286.2496 602.0525 L 285.7509 601.4496 L 285.1568 600.6522 L 284.502 599.9068 L 283.9623 599.2786 L 283.4505 598.5715 L 282.5958 596.9943 L 281.6622 594.9895 L 280.6955 593.0731 L 280.0242 591.806 L 279.5668 590.757 L 279.0517 589.3223 L 278.48 587.4526 L 277.7251 585.3959 L 277.1156 583.8583 L 276.5817 582.627 L 276.1039 581.8115 L 275.5091 580.6088 L 274.7712 578.8361 L 273.99 576.4893 L 273.3496 574.104 L 272.7117 571.6603 L 272.2113 569.7452 L 271.6341 567.9674 L 270.5557 564.6248 L 269.867 562.4227 L 269.165 560.1888 L 268.2642 557.7371 L 266.5844 553.317 L 265.5533 550.8446 L 264.505 547.9048 L 263.2768 544.4516 L 262.0582 540.9756 L 260.8914 537.9589 L 259.7791 535.2337 L 258.8663 532.9929 L 257.8303 530.5305 C 257.53 529.8147 257.2866 529.0701 256.9496 528.3976 C 256.2886 527.1382 255.6893 526.1296 254.9987 525.067 C 254.5953 524.4591 254.1792 524.0832 253.9092 523.741 L 252.8467 522.3063 L 251.657 520.8333 C 251.2679 520.3532 250.8098 519.7278 250.2872 519.1655 C 249.7761 518.6218 249.2701 518.1806 248.7902 517.7768 L 247.3215 516.6903 L 246.023 515.7962 L 244.5613 514.8571 L 242.9545 513.752 L 240.9817 512.3914 L 238.9212 511.0721 L 237.0954 510.1098 C 236.445 509.8447 235.9479 509.745 235.536 509.6887 C 234.9754 509.622 234.7276 509.7053 234.3699 509.7147 L 230.8722 509.7092 L 228.6222 509.8165 L 226.82 509.914 L 225.2228 510.0327 L 224.1201 510.1118 L 223.1658 510.1962 L 222.247 510.2604 L 221.019 510.3499 L 219.7385 510.4742 L 218.8645 510.6256 L 218.3228 510.6809 L 217.4903 510.8831 L 216.1129 511.3451 L 214.2546 512.0086 L 212.014 512.7367 L 210.3953 513.2791 L 209.3086 513.5925 L 208.6467 513.9065 L 208.0281 514.1345 L 207.2813 514.5349 L 206.4152 515.0463 L 205.7267 515.5414 L 205.1506 515.9289 L 204.5418 516.46 L 204.0201 517.1189 L 203.5054 517.7336 L 203.0451 518.372 L 202.6901 518.8877 L 202.1311 519.5671 C 201.959 519.788 201.7024 520.0802 201.3185 520.7238 L 199.3342 524.1815 L 198.4684 525.6495 L 198.0073 526.3042 L 197.5698 527.0055 L 197.26 527.6445 L 196.8879 528.3916 L 196.4075 529.2821 L 195.9721 530.0821 L 195.5805 530.7995 L 195.1819 531.5111 L 194.6103 532.632 L 193.3432 534.716 L 191.8526 537.07 C 191.1637 538.0418 190.6339 538.7918 190.1529 539.2269 C 189.4307 539.8987 188.492 540.4565 187.7753 540.8458 C 187.7772 540.8447 187.9675 540.7686 187.9072 540.7888 C 187.7897 540.8283 188.6923 540.7653 188.462 540.7374 C 188.2888 540.7165 188.9898 540.9097 188.8917 540.8625 C 188.7667 540.8023 189.0078 540.9208 188.8712 540.845 C 188.7084 540.7545 188.4072 540.6285 188.0737 540.6003 L 188.0119 540.5906 C 187.9994 540.589 188.1585 540.6203 188.1055 540.6085 C 188.0758 540.6019 188.2993 540.6632 188.2367 540.6436 C 188.1675 540.622 188.8168 540.9394 188.6077 540.812 C 188.3584 540.66 188.074 540.575 187.7822 540.5653 C 187.7033 540.5627 187.9512 540.5963 187.8174 540.5749 L 187.6007 540.5561 Z M 375.3628 635.7672 C 375.063 636.1157 374.928 636.5764 374.9922 637.0315 C 375.1434 638.1038 375.2777 637.7461 375.3137 637.7937 L 375.3514 637.8419 C 375.3635 637.8581 375.2243 637.6426 375.2706 637.7204 C 375.2967 637.7644 375.1175 637.3892 375.1634 637.5032 C 375.1884 637.5655 375.0548 637.1105 375.0817 637.2361 C 375.0961 637.3032 375.0417 636.8643 375.0474 636.976 C 375.0505 637.0347 375.0566 636.6804 375.0501 636.7649 C 375.0433 636.8538 375.172 636.2321 375.1193 636.4023 C 374.9214 637.0412 375.1275 637.7364 375.6417 638.1643 C 375.7271 638.2353 375.5082 638.0273 375.5768 638.103 C 375.6715 638.2077 375.779 638.2999 375.8967 638.3777 C 376.052 638.4802 375.6225 638.152 375.6595 638.1878 C 375.7674 638.2919 375.5648 638.0875 375.5697 638.0933 C 375.6013 638.1309 375.2821 638.2164 376.2826 638.6662 L 376.9435 638.8444 C 377.0304 638.8527 376.855 638.8242 376.8892 638.8325 L 377.666 639.0132 L 378.619 639.172 L 379.8136 639.4411 L 380.8713 639.689 L 382.017 640.0103 L 383.9864 640.352 L 385.2361 640.4564 L 386.4057 640.5419 L 387.4523 640.6353 L 388.1479 640.6521 L 388.6206 640.6718 L 389.1136 640.6957 L 389.6985 640.7008 L 390.2701 640.766 L 390.7557 640.8382 L 391.2622 640.9454 L 391.9845 640.949 L 392.9164 640.9359 L 394.1743 640.884 C 395.1841 640.8643 396.5801 640.9457 397.9214 640.8146 C 398.8965 640.7131 399.6665 640.5069 400.6777 640.2104 C 401.4829 639.9625 402.6196 639.5688 403.5456 639.1485 C 404.4649 638.7527 405.2595 638.2545 405.8545 637.9298 L 407.4009 637.0946 L 408.3527 636.5016 C 408.6153 636.3207 408.8661 636.069 409.0349 635.8809 L 409.6012 635.0645 L 410.0683 634.1889 L 410.4617 633.3995 L 410.7871 632.8045 L 411.2812 631.9607 L 412.0044 630.8119 L 413.4928 628.708 L 415.1356 626.5228 L 418.1338 622.9889 L 418.7985 622.3904 L 419.3037 622.0182 L 419.7159 621.6936 L 420.3734 621.2198 L 421.137 620.5725 L 422.4046 619.345 L 423.6573 618.013 L 425.0737 616.5441 L 425.9018 615.7303 L 426.4468 615.2582 L 426.7426 615.002 L 425.7624 615.3634 C 426.555 615.3554 426.4092 615.2193 426.4719 615.1883 L 426.5811 615.1316 C 426.5873 615.1285 426.4283 615.1975 426.4929 615.1713 C 426.5302 615.1563 426.1994 615.26 426.3017 615.2338 C 426.358 615.2195 425.9447 615.2866 426.0589 615.2759 C 426.1201 615.2701 425.7241 615.2753 425.8238 615.2806 C 425.9303 615.2863 425.1328 615.1036 425.3588 615.1858 C 426.198 615.4909 427.1257 615.058 427.4309 614.2188 C 427.7361 613.3796 427.3032 612.4519 426.4639 612.1467 C 425.6247 611.8415 424.697 612.2745 424.3918 613.1137 C 424.2887 613.3974 424.267 613.7043 424.3292 613.9997 C 424.3635 614.1624 424.2966 613.5444 424.2949 613.6354 C 424.2916 613.8016 424.3607 613.2029 424.3408 613.2843 C 424.3053 613.4287 424.4648 612.9457 424.4381 613.0042 C 424.3932 613.1024 424.5483 612.8046 424.5297 612.834 C 424.4804 612.9124 424.5612 612.7856 424.5207 612.8425 L 424.417 613.002 C 424.3614 613.0975 424.1195 613.0456 424.2009 613.9503 L 424.4629 612.9391 L 424.2057 613.468 C 424.1776 613.5527 424.3298 613.2157 424.3254 613.2215 L 423.8469 613.7664 L 423.0483 614.576 L 421.5984 615.9734 L 420.3283 617.1678 L 419.1146 618.1981 L 418.4749 618.7017 L 417.7263 619.3887 L 417.2576 619.9718 L 416.9046 620.454 L 416.1286 621.3064 L 413.0565 624.8334 L 411.2726 627.0095 L 409.6235 629.0399 L 408.7308 630.2529 L 408.1207 631.2042 L 407.7031 631.9236 L 407.2848 632.7591 L 406.9078 633.5605 L 406.6358 634.1578 L 406.4817 634.4477 L 405.9808 634.8386 L 404.5966 635.6234 C 403.9267 635.9715 403.2075 636.4011 402.4849 636.6991 C 401.7329 636.992 400.6133 637.337 399.9587 637.4916 C 398.9664 637.7401 398.4551 637.8397 397.6973 637.8815 C 396.648 637.946 395.3262 637.8393 394.1571 637.8164 L 392.9692 637.7665 L 392.0032 637.7521 L 391.5897 637.755 C 391.5409 637.7508 391.6229 637.7473 391.2837 637.6924 L 390.6879 637.6033 L 389.9562 637.4987 L 389.1567 637.5021 L 388.607 637.5279 L 388.1326 637.5474 L 387.5951 637.5618 L 386.6302 637.489 L 385.4649 637.407 L 384.3761 637.3424 L 382.6256 637.0593 L 381.6467 636.7641 L 380.5724 636.4556 L 379.3349 636.1017 L 378.4447 635.8721 L 377.8195 635.6653 L 377.4896 635.5753 C 377.4184 635.5582 377.8992 635.7548 377.8378 635.7173 C 377.7272 635.643 378.1853 636.0015 378.1446 635.96 C 378.0335 635.8467 378.2363 636.0645 378.2293 636.0549 L 378.1637 635.9639 C 378.0788 635.8513 377.98 635.7498 377.8697 635.6619 C 377.7342 635.5539 377.3654 635.3403 377.0606 635.2841 C 376.8785 635.2505 377.617 635.504 377.4718 635.4275 C 376.8805 635.1161 376.16 635.1908 375.6452 635.6168 C 375.4594 635.7705 376.1459 635.3288 376.0463 635.3716 C 375.8654 635.4493 376.5438 635.2418 376.4461 635.2568 C 376.2723 635.2836 376.8823 635.2467 376.8029 635.2414 C 376.6686 635.2324 377.0957 635.2882 377.0494 635.2776 C 376.9221 635.2482 377.1494 635.3031 377.0644 635.2789 L 376.7965 635.2232 L 376.4373 635.2161 C 376.2452 635.2334 375.9444 635.0913 375.3628 635.7672 M 424.7361 612.5541 C 424.1224 613.2037 424.1514 614.2278 424.801 614.8416 C 425.3645 615.374 426.2264 615.432 426.8562 614.9798 C 426.8788 614.9635 426.6841 615.0855 426.7413 615.053 C 426.7953 615.0223 426.4099 615.1962 426.5117 615.159 C 426.7023 615.0894 425.8759 615.2535 425.9401 615.2547 C 425.9781 615.2553 426.6113 615.1481 426.8334 615.0156 L 427.167 614.7639 C 427.3677 614.5822 427.5207 614.3539 427.6125 614.0992 C 427.6683 613.9444 427.4738 614.392 427.4979 614.3493 C 427.5722 614.2177 427.3986 614.503 427.4063 614.4924 L 427.6053 614.2416 L 429.0712 612.7454 L 430.0774 611.7902 L 430.7395 611.1579 C 430.6859 611.2028 430.5823 611.2456 430.7124 611.1976 L 430.6725 611.1969 L 431.1926 611.0177 C 431.2171 611.0072 431.5663 610.8594 431.8943 610.5542 C 432.3467 610.068 432.2482 610.0822 432.404 609.9109 L 433.6057 608.5801 L 435.3014 607.0085 L 437.2602 605.3123 L 438.7968 604.2973 L 440.1147 603.4876 L 441.0405 603.1893 L 441.6781 603.0707 L 441.7083 603.0784 C 441.8705 603.0858 442.0329 603.0678 442.1895 603.0249 C 442.3252 602.9878 442.878 602.7572 443.1394 602.4705 C 443.5579 601.9351 443.5806 601.3969 443.5814 601.314 C 443.5816 601.2958 443.5669 601.4915 443.5748 601.4166 C 443.5832 601.3361 443.4884 601.7766 443.5175 601.6868 C 443.6005 601.3936 443.3938 601.924 443.4598 601.8114 L 443.7088 601.363 L 444.1372 600.6654 L 444.6704 599.8364 L 445.3684 598.6747 L 446.2181 597.3586 L 447.0866 595.9074 L 448.3038 594.0692 L 449.7237 591.9909 L 451.1826 589.7802 L 452.4459 587.9798 L 453.6125 586.1971 L 454.751 584.6031 L 455.5325 583.5566 L 456.4437 582.3486 L 456.966 581.3711 L 457.4447 580.3899 L 457.7966 579.2454 L 458.0998 578.2718 L 458.3954 577.1917 L 458.7061 576.285 L 458.8851 575.6633 L 459.044 575.2368 L 459.3416 574.4191 L 459.6531 573.3967 L 460.1153 571.6663 L 460.7064 569.782 L 461.3868 567.94 L 461.9805 566.7955 L 462.4211 566.1783 L 462.7805 565.6565 L 463.0066 565.354 L 463.2375 564.8851 L 463.591 564.3198 L 463.9461 563.6625 L 464.3006 563.0999 L 464.4689 562.7369 L 464.5144 562.6257 L 464.4892 562.6783 C 464.5045 562.6479 464.2999 562.9774 464.3787 562.8638 C 464.4944 562.6691 464.2546 562.9741 464.3423 562.8778 L 464.5888 562.5581 C 464.7246 562.3791 464.7133 562.3202 464.7418 562.2485 C 464.7845 562.1414 464.4095 562.7489 464.4971 562.6496 C 464.6221 562.4995 464.3503 562.7921 464.3684 562.7766 L 464.7827 562.3606 L 465.2172 561.6726 L 465.7699 560.8203 L 466.2678 559.9232 L 466.5272 559.4139 L 466.6268 559.252 C 466.7188 559.1515 465.6191 559.8427 465.8838 559.7602 C 465.9777 559.731 465.6031 559.8205 465.6564 559.8125 C 465.852 559.7831 466.6564 559.385 466.9045 558.9705 C 467.2868 558.3204 467.0577 558.5659 467.1193 558.4449 L 467.4137 557.9053 L 467.7132 557.2732 L 468.0427 556.7399 C 468.228 556.4335 468.193 556.3961 468.2522 556.2654 L 468.4615 555.6563 C 468.5798 555.248 468.5028 555.161 468.5014 555.1295 C 468.5 555.0996 468.4829 555.4322 468.4941 555.3314 C 468.5061 555.2243 468.3459 555.8371 468.3995 555.7045 C 468.4446 555.5867 468.3222 555.8605 468.3378 555.8329 L 468.4356 555.6879 L 468.6889 555.2564 L 469.0487 554.6705 L 469.3488 554.0311 L 469.5578 553.4958 L 469.6502 553.1947 C 469.7578 552.8478 469.6241 553.1791 469.6447 553.1401 L 469.7912 552.9284 L 470.2342 552.2843 L 470.7158 551.5366 L 471.1252 550.8015 L 471.3609 550.3004 L 471.4671 549.9969 C 471.4971 549.9215 471.3886 550.1244 471.4386 550.041 C 471.4894 549.9562 471.5324 549.867 471.5672 549.7745 C 471.8145 549.1168 471.4508 549.9077 471.6744 549.5187 L 473.8853 545.8105 C 474.3008 545.1135 474.0726 544.2117 473.3756 543.7962 C 472.7027 543.3951 471.8334 543.5924 471.3997 544.2449 L 469.0028 547.851 L 468.8733 548.0347 C 468.866 548.0444 468.97 547.929 468.9229 547.9789 C 468.8361 548.0706 469.3187 547.6716 469.1628 547.7754 C 468.9412 547.923 468.7753 548.1241 468.7007 548.2263 C 468.6424 548.3061 468.5914 548.391 468.5484 548.4799 L 468.3675 548.9865 L 468.2986 549.2942 C 468.2395 549.4645 468.3396 549.2265 468.26 549.3911 L 467.9831 549.875 L 467.5917 550.3963 L 467.1182 551.0338 L 466.7251 551.6521 L 466.521 552.3315 C 466.5047 552.4658 466.5459 552.2384 466.5309 552.3027 L 466.4901 552.5174 L 466.4002 552.7268 L 466.2325 553.0416 L 465.9358 553.4503 L 465.6393 553.8986 C 465.5611 554.0323 465.4278 554.13 465.2842 554.6388 C 465.1748 555.0591 465.2266 555.3948 465.2608 555.5524 L 465.2742 555.6096 C 465.279 555.6311 465.2455 555.4325 465.2534 555.4915 C 465.2619 555.5553 465.2464 555.1133 465.2416 555.2269 C 465.229 555.3338 465.2866 555.0148 465.2498 555.1363 C 465.1822 555.4039 465.2496 555.1977 465.1969 555.303 L 464.9203 555.6642 L 464.5508 556.3273 L 464.1732 556.9613 L 463.9696 557.5583 L 463.9451 557.6603 C 463.9437 557.666 464.0394 557.4046 463.9908 557.526 C 463.9671 557.5863 464.2169 557.1445 464.1296 557.2715 C 464.06 557.3727 464.4814 556.9037 464.3915 556.9807 C 464.3292 557.034 464.4953 556.8995 464.4928 556.9013 C 464.43 556.9458 464.0673 557.295 463.9437 557.5423 L 463.7392 557.9719 L 463.5043 558.4581 L 463.0972 559.0728 L 462.5421 559.7904 L 462.2136 560.2446 C 462.0718 560.4301 462.2545 560.0834 461.8871 560.6229 C 461.7005 560.9158 461.5889 561.2898 461.5728 561.5296 L 461.5691 561.6269 C 461.5673 561.6932 461.6953 561.0295 461.6376 561.2155 L 461.5715 561.3389 L 461.4613 561.6711 L 461.2084 562.0034 L 460.8299 562.6465 L 460.4305 563.2699 L 460.1762 563.9367 L 460.0527 564.3371 L 459.9171 564.7149 L 459.5023 565.5178 L 458.8334 566.8637 L 458.0305 568.8146 L 457.2949 570.743 L 456.7168 572.4324 L 456.3858 573.3466 L 456.0941 574.1917 L 455.914 574.7971 L 455.7739 575.4202 L 455.4801 576.3275 L 455.1659 577.3745 L 454.8448 578.2834 L 454.5476 579.2506 L 454.1952 580.1028 L 453.906 580.885 L 453.2528 581.9474 L 452.5405 583.1332 L 451.4593 584.7889 L 450.3311 586.5665 L 449.067 588.3307 L 447.5544 590.4895 L 446.064 592.4888 L 444.7221 594.3137 L 443.7611 595.732 L 442.845 596.994 L 442.0817 598.1008 L 441.5112 598.8332 L 440.9818 599.5505 L 440.6058 600.1132 C 440.4252 600.4577 440.3762 600.409 440.3045 600.9642 C 440.2648 601.4124 440.3779 601.7791 440.4248 601.898 C 440.4398 601.936 440.3445 601.6253 440.3824 601.7656 C 440.4038 601.8446 440.3247 601.3134 440.3316 601.4456 C 440.3387 601.5822 440.4079 600.855 440.3721 601.0042 C 440.3412 601.1694 440.3761 600.9962 440.3587 601.0745 C 440.3272 601.2162 440.771 600.3202 440.633 600.4957 C 440.5039 600.6598 440.9689 600.193 440.9198 600.2255 C 440.7843 600.3152 440.6636 600.4256 440.5623 600.5527 C 440.4716 600.6663 440.8568 600.2708 440.7943 600.3205 C 440.6945 600.3998 441.0229 600.174 440.9884 600.1922 L 440.8472 600.2509 L 440.0887 600.5477 C 439.8263 600.6604 439.3637 600.8251 438.8307 601.1407 C 438.316 601.4283 437.8238 601.8043 437.3513 602.1189 C 436.9153 602.389 436.3379 602.6908 435.65 603.1875 L 433.4858 604.842 L 431.5666 606.3384 L 430.1245 607.682 L 429.6458 608.2465 C 429.5752 608.3457 429.7195 608.1841 429.6635 608.24 C 429.5224 608.3975 429.6974 608.2247 429.5348 608.3481 L 429.3669 608.4382 C 429.0727 608.6505 429.1018 608.5615 428.7594 608.865 L 428.0089 609.4911 L 426.9025 610.4152 L 425.1745 612.0899 L 424.9973 612.2659 L 424.9341 612.3307 L 424.9547 612.3112 C 424.9422 612.3227 425.0651 612.2182 425.0251 612.2506 C 425.0029 612.2685 425.1752 612.1417 425.1258 612.1756 C 425.0713 612.213 425.6524 611.9229 425.4498 612.0031 C 425.1983 612.1028 424.9752 612.2626 424.8 612.4686 L 424.5633 612.792 Z "/>
<path transform="matrix(1,0,0,-1,-151.75,692.2691)" d="M 446.4396 497.1782 C 445.6957 497.1782 445.0926 497.7812 445.0926 498.5251 C 445.0926 499.269 445.6957 499.8721 446.4396 499.8721 L 481.733 499.8721 C 482.4769 499.8721 483.08 499.269 483.08 498.5251 C 483.08 497.7812 482.4769 497.1782 481.733 497.1782 Z "/>
</g>
</g>
</g>
</svg>
