<?xml version="1.0" standalone="no"?>
<!DOCTYPE svg PUBLIC "-//W3C//DTD SVG 20010904//EN"
 "http://www.w3.org/TR/2001/REC-SVG-20010904/DTD/svg10.dtd">
<svg version="1.0" xmlns="http://www.w3.org/2000/svg"
 width="800.000000pt" height="800.000000pt" viewBox="0 0 800.000000 800.000000"
 preserveAspectRatio="xMidYMid meet">
<metadata>
Created by potrace 1.14, written by Peter Selinger 2001-2017
</metadata>
<g transform="translate(0.000000,800.000000) scale(0.100000,-0.100000)"
fill="#000000" stroke="none">
<path d="M3758 7995 c-1 -1 -39 -5 -83 -8 -316 -22 -642 -90 -990 -207 -49
-16 -99 -34 -110 -39 -11 -5 -56 -24 -100 -41 -93 -37 -371 -172 -465 -226
-176 -100 -454 -296 -597 -419 -204 -177 -398 -377 -547 -565 -19 -25 -41 -52
-48 -60 -30 -35 -198 -277 -198 -285 0 -3 -20 -36 -44 -73 -81 -128 -236 -426
-236 -457 0 -7 -4 -15 -8 -17 -17 -7 -171 -435 -187 -520 -2 -10 -6 -22 -9
-26 -3 -5 -7 -19 -10 -33 -2 -13 -14 -64 -25 -114 -26 -107 -28 -119 -35 -169
-4 -21 -8 -41 -10 -45 -2 -3 -7 -31 -10 -61 -4 -30 -8 -66 -11 -80 -24 -148
-30 -249 -30 -555 0 -256 5 -363 20 -470 2 -16 7 -48 9 -70 3 -22 8 -51 10
-65 3 -14 7 -42 10 -63 4 -21 13 -73 22 -115 9 -42 18 -86 20 -97 3 -17 10
-48 20 -87 1 -5 2 -9 3 -10 2 -2 4 -14 7 -27 16 -89 139 -448 200 -586 10 -22
18 -42 19 -45 0 -3 4 -11 9 -18 4 -7 6 -16 2 -19 -3 -3 2 -12 10 -20 8 -8 12
-19 9 -24 -4 -5 -1 -9 4 -9 6 0 11 -9 11 -20 0 -12 7 -32 16 -45 9 -14 12 -25
8 -25 -5 0 -4 -4 1 -8 6 -4 17 -21 26 -37 35 -66 228 -364 282 -435 31 -41 69
-92 84 -113 32 -44 27 -37 121 -149 147 -177 312 -344 472 -478 36 -30 67 -57
70 -60 3 -3 34 -28 70 -55 36 -27 70 -53 75 -57 181 -143 493 -325 777 -452
175 -78 511 -192 657 -222 12 -3 51 -11 85 -19 55 -13 112 -24 156 -30 8 -1
26 -5 40 -8 27 -7 83 -14 165 -22 28 -3 59 -7 70 -10 121 -25 714 -26 876 -1
13 3 46 7 72 11 27 4 56 8 65 9 24 5 115 19 127 20 31 4 104 19 130 26 17 5
46 12 65 15 19 3 60 13 90 21 30 8 64 17 75 19 11 3 71 21 134 41 405 127 804
328 1146 578 61 44 115 85 121 91 6 5 26 21 44 35 18 14 42 33 54 43 11 10 48
42 81 70 216 188 510 522 660 752 22 33 42 62 46 65 3 3 44 70 91 150 108 186
235 444 273 557 9 26 23 62 30 78 41 90 162 517 179 631 4 22 8 49 10 61 3 12
8 43 12 70 3 26 8 57 11 68 2 11 6 40 8 65 3 25 8 65 11 90 17 144 23 508 11
670 -12 167 -15 196 -32 315 -31 231 -135 643 -204 810 -5 11 -26 63 -46 115
-60 150 -222 474 -289 576 -11 16 -42 65 -70 109 -189 300 -511 661 -796 894
-14 11 -30 24 -35 29 -6 5 -39 30 -75 58 -36 27 -67 52 -70 55 -7 9 -307 209
-313 209 -3 0 -35 18 -72 41 -63 38 -266 142 -365 187 -238 107 -580 215 -845
266 -44 8 -91 18 -105 21 -14 3 -43 7 -65 9 -22 2 -51 7 -65 10 -14 3 -54 8
-90 11 -36 4 -83 9 -105 11 -48 6 -582 14 -587 9z"/>
</g>
</svg>
